<svg viewBox="8.988567352294922 11.944896697998047 104.79505920410156 36.915348052978516" xmlns="http://www.w3.org/2000/svg">
	<g>
		<path d="m43.482731 11.952421h8.482051l-21.417615 36.907824-21.5585988-36.907824h8.6749998l12.883599 22.219215z" fill="#8e8e8e"></path>
		<path d="m35.466734 11.944897h8.067154l-12.997999 22.265538-12.893671-22.265538h7.941074l4.952597 8.57188z" fill="#454545"></path>
		<path d="m57.026094 19.231181c0-.272276.151139-.499167.453429-.680703.30229-.181515.618323-.272276.948069-.272276.458008 0 .741977.172438.851908.517339l4.836597 16.173094 4.809103-16.173094c.128243-.344881.403048-.517339.824412-.517339.348088 0 .673264.09983.975564.299501.30229.199666.45343.426562.45343.680701 0 .01815-.0045.04538-.01375.08168-.0092.0363-.01375.07261-.01375.10891l-5.578524 18.106328c-.201526.526385-.686985.789578-1.456457.789578-.769473 0-1.236645-.263197-1.401518-.789578l-5.633295-18.106324c-.03664-.10891-.05496-.181516-.05496-.217817zm14.369048 13.940279v-7.078966c0-.217823.114501-.408412.343507-.571776.229008-.163365.499228-.245046.810692-.245046.293126 0 .554183.08622.783194.258658.229007.172443.343509.358492.343509.558154v7.078966c0 .816823.311443 1.551963.934345 2.205421.622901.653459 1.364873.980189 2.22593.980189.842761 0 1.575539-.322191 2.198435-.966566.622897-.644376.934345-1.384075.934345-2.219044v-7.106613c0-.199666.114501-.381182.343508-.544532.229008-.163364.499228-.245046.810691-.245046.32977 0 .599975.07714.81069.231435.210686.154291.316028.340341.316028.558153v7.106613c0 1.397697-.535886 2.618357-1.607608 3.66208-1.071723 1.043725-2.340436 1.565587-3.806044 1.565587-1.483954 0-2.761767-.521862-3.833539-1.565587-1.071721-1.043723-1.607608-2.264383-1.607608-3.66208zm12.71982-.05446v-2.858881c0-1.397697.535885-2.604735 1.607607-3.621265 1.071723-1.01648 2.358734-1.52472 3.861035-1.52472 1.429013 0 2.665608.476478 3.709885 1.429466 1.044277.952944 1.56639 2.14641 1.56639 3.580399 0 .526386-.06412.948419-.192364 1.266101-.128243.317681-.325186.544532-.590826.680702-.265647.136136-.512966.222358-.741977.25866-.229007.0363-.535887.05446-.920623.05446h-6.018352v.816823c0 .998334.361825 1.797011 1.085496 2.396031.723679.59902 1.662549.898505 2.816757.898505.6046 0 1.131287-.09076 1.580113-.272276.44885-.181516.81069-.358492 1.085494-.530909.274805-.172444.494648-.25866.659541-.25866.256488 0 .476331.113446.659541.340342.183204.226895.274804.458325.274804.694274 0 .41749-.416786.844068-1.250367 1.279673-.833562.43564-1.864116.653459-3.091562.653459-1.795403 0-3.261009-.48555-4.396871-1.45666-1.135861-.971109-1.703817-2.246238-1.703817-3.825446zm2.28087-2.259861h5.083908c.47633 0 .796916-.05899.96184-.176975.164923-.117985.247323-.34942.247323-.694275 0-.816823-.302284-1.533818-.906849-2.150984-.604564-.617167-1.346526-.92575-2.22593-.92575-.861058 0-1.603035.285884-2.225931.857639-.622896.571776-.934345 1.275148-.934345 2.110118zm9.614888 6.071635c0-.399338.1374-.739665.4122-1.021004.27481-.281354.61375-.422023 1.01678-.422023.38474 0 .71448.140674.98929.422023.2748.281349.41221.62169.41221 1.021004 0 .381187-.13741.712471-.41221.99381-.27481.281349-.60455.422023-.98929.422023-.40304 0-.74197-.140674-1.01678-.422023-.2748-.281349-.4122-.612592-.4122-.99381zm2.03015 6.507441c0-.290428.0916-.530911.2748-.721519.18321-.190594.40304-.285888.65953-.285888.71449 0 1.18166-.263199 1.40153-.789579.21986-.526381.32976-1.315965.32976-2.368787v-13.205384c0-.235975.10537-.426563.31603-.571776.21069-.145214.48091-.217819.81069-.217819.32977 0 .60455.07261.82441.217819.21984.145213.32977.335801.32977.571776v13.205389c0 1.579208-.31144 2.831636-.93434 3.757386-.62291.92575-1.5664 1.388599-2.83048 1.388599-.78778 0-1.18166-.326724-1.18166-.980188zm2.3633-23.007266c0-.34488.1374-.644361.41221-.898506.2748-.254124.61374-.381182 1.01678-.381182.38473 0 .71449.127062.98928.381182.27481.254125.41221.55363.41221.898506 0 .344875-.1374.648934-.41221.912127-.27479.263198-.60455.3948-.98928.3948s-.71906-.131597-1.00306-.3948c-.28397-.263198-.42595-.567252-.42595-.912127zm4.28353 15.900653c0-.235973.0778-.467404.23358-.694274.15573-.226895.34351-.340341.56333-.340341.14657 0 .35725.10891.63205.326729.27479.217823.66869.431102 1.18165.639836.51296.208746 1.11751.313118 1.8137.313118.91605 0 1.58011-.163365 1.99234-.490095.41221-.326729.61832-.73514.61832-1.225233 0-.59902-.229-1.075492-.68703-1.429466-.45802-.353958-1.01678-.62169-1.67633-.803201-.65954-.181516-1.31907-.381182-1.97861-.59902-.65955-.217823-1.2183-.580875-1.67633-1.089114-.45802-.50824-.68703-1.179845-.68703-2.014814 0-1.034625.37098-1.928607 1.11294-2.681893.74197-.753287 1.87327-1.129931 3.39386-1.129931.97099 0 1.85949.149748 2.66561.449253.80611.299505 1.20914.639836 1.20914 1.021004 0 .217823-.087.462864-.26106.73514-.17405.272277-.38931.408412-.64582.408412-.0733 0-.42594-.131596-1.05799-.3948-.63206-.263197-1.25952-.394799-1.88242-.394799-.84276 0-1.47023.195128-1.88241.585398-.41221.390261-.61833.830445-.61833 1.320539 0 .50824.22901.907604.68704 1.19799.45801.290427 1.02135.517338 1.69004.680703.6687.163365 1.3328.363031 1.99235.59902.65954.23599 1.2183.639837 1.67632 1.211613s.68703 1.31144.68703 2.219043c0 1.125408-.40303 2.014814-1.20914 2.668273-.8061.653458-1.93278.980188-3.38009.980188-1.24579 0-2.30837-.222357-3.18773-.667082-.87939-.444718-1.31907-.912127-1.31907-1.40222z" fill="#8e8e8e" stroke-width=".50266"></path>
	</g>
</svg>
