<?xml version="1.0" encoding="iso-8859-1"?>
<!-- Generator: Adobe Illustrator 19.0.0, SVG Export Plug-In . SVG Version: 6.00 Build 0)  -->
<svg version="1.1" id="Capa_1" xmlns="http://www.w3.org/2000/svg" xmlns:xlink="http://www.w3.org/1999/xlink" x="0px" y="0px"
	 viewBox="0 0 447.4 447.4" style="enable-background:new 0 0 447.4 447.4;" xml:space="preserve">
<g>
	<g>
		<path d="M437.45,316.7h-306.7V10c0-5.5-4.5-10-10-10s-10,4.5-10,10v311.7c-0.1,8.2,6.6,15,14.8,15c0.1,0,0.1,0,0.2,0h311.6
			c5.5,0,10-4.5,10-10S442.95,316.7,437.45,316.7z"/>
	</g>
</g>
<g>
	<g>
		<path d="M326.75,374.2c-5.5,0-10,4.5-10,10v53.2c0,5.5,4.5,10,10,10s10-4.5,10-10v-53.2C336.75,378.7,332.25,374.2,326.75,374.2z"
			/>
	</g>
</g>
<g>
	<g>
		<path d="M321.95,110.7c-0.1,0-0.1,0-0.2,0h-153.8c-5.5,0-10,4.5-10,10s4.5,10,10,10h148.8v150.8c0,5.5,4.5,10,10,10s10-4.5,10-10
			V125.7C336.85,117.5,330.15,110.7,321.95,110.7z"/>
	</g>
</g>
<g>
	<g>
		<path d="M68.45,110.7h-58.4c-5.5,0-10,4.5-10,10s4.5,10,10,10h58.4c5.5,0,10-4.5,10-10S73.95,110.7,68.45,110.7z"/>
	</g>
</g>
<g>
</g>
<g>
</g>
<g>
</g>
<g>
</g>
<g>
</g>
<g>
</g>
<g>
</g>
<g>
</g>
<g>
</g>
<g>
</g>
<g>
</g>
<g>
</g>
<g>
</g>
<g>
</g>
<g>
</g>
</svg>
