<svg xmlns="http://www.w3.org/2000/svg" xmlns:xlink="http://www.w3.org/1999/xlink" viewBox="0 0 160 44" version="1.1">
	<g fill="#575757" >
		<path d="M 47.097656 32.355469 L 47.097656 12.527344 L 49.632812 12.527344 L 61.671875 28.484375 L 61.671875 12.527344 L 64.082031 12.527344 L 64.082031 32.355469 L 61.546875 32.355469 L 49.507812 16.242188 L 49.507812 32.355469 Z M 47.097656 32.355469 "/>
		<path d="M 83.691406 31.570312 C 82.09375 32.167969 80.375 32.484375 78.5625 32.484375 C 71.429688 32.484375 67.863281 29.050781 67.863281 22.15625 C 67.863281 15.640625 71.304688 12.371094 78.1875 12.371094 C 80.15625 12.371094 82.003906 12.652344 83.691406 13.1875 L 83.691406 15.390625 C 82.003906 14.730469 80.25 14.417969 78.46875 14.417969 C 73.085938 14.417969 70.398438 16.996094 70.398438 22.09375 C 70.398438 27.601562 73.058594 30.34375 78.339844 30.34375 C 79.1875 30.34375 80.125 30.214844 81.15625 29.996094 L 81.15625 23.355469 L 83.691406 23.355469 Z M 83.691406 31.570312 "/>
		<path d="M 87.753906 24.707031 L 87.753906 12.527344 L 90.289062 12.527344 L 90.289062 24.707031 C 90.289062 28.515625 92.164062 30.4375 95.949219 30.4375 C 99.703125 30.4375 101.609375 28.515625 101.609375 24.707031 L 101.609375 12.527344 L 104.140625 12.527344 L 104.140625 24.707031 C 104.140625 29.898438 101.421875 32.515625 95.949219 32.515625 C 90.476562 32.515625 87.753906 29.898438 87.753906 24.707031 Z M 87.753906 24.707031 "/>
		<path d="M 111.210938 12.527344 L 111.210938 30.277344 L 121.53125 30.277344 L 121.53125 32.355469 L 108.679688 32.355469 L 108.679688 12.527344 Z M 111.210938 12.527344 "/>
		<path d="M 125.191406 32.355469 L 122.53125 32.355469 L 132.320312 9.914062 L 142.109375 32.355469 L 139.296875 32.355469 L 136.761719 26.125 L 130.257812 26.125 L 130.945312 24.046875 L 135.917969 24.046875 L 132.226562 15.074219 Z M 125.191406 32.355469 "/>
		<path d="M 144.832031 32.355469 L 144.832031 12.527344 L 153.246094 12.527344 C 156.996094 12.527344 158.875 14.101562 158.875 17.28125 C 158.875 19.859375 157.027344 21.78125 153.367188 23.007812 L 160.125 32.355469 L 156.777344 32.355469 L 150.523438 23.449219 L 150.523438 21.78125 C 154.277344 21.179688 156.183594 19.734375 156.183594 17.40625 C 156.183594 15.582031 155.152344 14.667969 153.058594 14.667969 L 147.425781 14.667969 L 147.425781 32.355469 Z M 144.832031 32.355469 "/>
		<path fill="#676767" d="M 0 7.238281 L 20.171875 0 L 40.875 7.113281 L 37.527344 33.960938 L 20.171875 43.625 L 3.097656 34.085938 Z M 0 7.238281 "/>
		<path d="M 40.875 7.113281 L 20.171875 0 L 20.171875 43.625 L 37.527344 33.960938 Z M 40.875 7.113281 "/>
		<path fill="#fff" d="M 20.203125 5.101562 L 7.628906 33.238281 L 12.324219 33.140625 L 14.855469 26.785156 L 26.082031 26.785156 L 28.835938 33.207031 L 33.304688 33.300781 Z M 20.234375 14.132812 L 24.488281 23.070312 L 16.511719 23.070312 Z M 20.234375 14.132812 "/>
	</g>
</svg>
