<?xml version="1.0" encoding="UTF-8"?>
<svg xmlns="http://www.w3.org/2000/svg" xmlns:xlink="http://www.w3.org/1999/xlink" viewBox="0 0 129 50" version="1.1">
	<g fill="#8e8e8e">
		<path d="M 126.425781 34.289062 C 126.425781 34.289062 123.300781 36.722656 120.546875 36.453125 C 117.792969 36.179688 118.65625 30.003906 118.65625 30.003906 C 118.65625 30.003906 119.25 24.339844 117.628906 23.863281 C 116.011719 23.390625 114.015625 25.339844 114.015625 25.339844 C 114.015625 25.339844 111.53125 28.105469 110.34375 31.628906 L 110.019531 31.734375 C 110.019531 31.734375 110.398438 25.554688 109.96875 24.148438 C 109.644531 23.445312 106.675781 23.5 106.191406 24.742188 C 105.703125 25.992188 103.328125 34.660156 103.164062 38.292969 C 103.164062 38.292969 98.523438 42.246094 94.480469 42.894531 C 90.429688 43.546875 89.457031 41 89.457031 41 C 89.457031 41 100.46875 37.910156 100.089844 29.078125 C 99.714844 20.246094 91.210938 23.515625 90.25 24.238281 C 89.320312 24.945312 84.351562 27.953125 82.898438 36.285156 C 82.851562 36.5625 82.765625 37.804688 82.765625 37.804688 C 82.765625 37.804688 78.5 40.671875 76.125 41.433594 C 76.125 41.433594 82.765625 30.214844 74.671875 25.125 C 72.394531 23.746094 70.410156 25.015625 69.230469 26.179688 C 68.507812 26.890625 79.042969 15.320312 76.613281 4.96875 C 75.457031 0.0390625 73.003906 -0.488281 70.75 0.3125 C 67.332031 1.664062 66.039062 3.667969 66.039062 3.667969 C 66.039062 3.667969 61.609375 10.117188 60.582031 19.707031 C 59.558594 29.296875 58.046875 40.890625 58.046875 40.890625 C 58.046875 40.890625 55.941406 42.953125 54 43.058594 C 52.054688 43.164062 52.921875 37.261719 52.921875 37.261719 C 52.921875 37.261719 54.429688 28.269531 54.328125 26.746094 C 54.214844 25.230469 54.109375 24.421875 52.328125 23.878906 C 50.546875 23.335938 48.601562 25.613281 48.601562 25.613281 C 48.601562 25.613281 43.476562 33.410156 43.046875 34.605469 L 42.773438 35.097656 L 42.503906 34.769531 C 42.503906 34.769531 46.117188 24.148438 42.667969 23.988281 C 39.214844 23.824219 36.945312 27.78125 36.945312 27.78125 C 36.945312 27.78125 33.003906 34.390625 32.84375 35.148438 L 32.574219 34.824219 C 32.574219 34.824219 34.191406 27.132812 33.871094 25.230469 C 33.542969 23.335938 31.765625 23.714844 31.765625 23.714844 C 31.765625 23.714844 29.5 23.445312 28.90625 24.90625 C 28.3125 26.371094 26.152344 36.066406 25.882812 39.15625 C 25.882812 39.15625 20.214844 43.21875 16.488281 43.273438 C 12.769531 43.328125 13.144531 40.902344 13.144531 40.902344 C 13.144531 40.902344 26.800781 36.210938 23.074219 26.949219 C 21.402344 24.5625 19.460938 23.816406 16.707031 23.867188 C 13.957031 23.925781 10.539062 25.609375 8.328125 30.59375 C 7.269531 32.96875 6.886719 35.226562 6.667969 36.933594 C 6.667969 36.933594 4.28125 37.425781 2.984375 36.339844 C 1.6875 35.257812 1.019531 36.339844 1.019531 36.339844 C 1.019531 36.339844 -1.203125 39.1875 1.007812 40.050781 C 3.226562 40.921875 6.675781 41.324219 6.675781 41.324219 C 6.996094 42.839844 7.914062 45.421875 10.613281 47.472656 C 14.660156 50.558594 22.425781 47.1875 22.425781 47.1875 L 25.609375 45.394531 C 25.609375 45.394531 25.71875 48.328125 28.039062 48.757812 C 30.359375 49.183594 31.332031 48.746094 35.378906 38.886719 C 37.753906 33.847656 37.917969 34.121094 37.917969 34.121094 C 38.183594 34.0625 36.351562 43.707031 37.054688 46.308594 C 37.753906 48.910156 40.832031 48.640625 40.832031 48.640625 C 40.832031 48.640625 42.503906 48.964844 43.855469 44.195312 C 45.203125 39.429688 47.796875 34.171875 47.796875 34.171875 C 48.113281 34.171875 46.984375 44.03125 48.707031 47.175781 C 50.4375 50.320312 54.917969 48.230469 54.917969 48.230469 C 54.917969 48.230469 58.046875 46.648438 58.535156 46.160156 C 58.535156 46.160156 62.25 49.335938 67.488281 48.761719 C 79.203125 46.445312 83.371094 43.316406 83.371094 43.316406 C 83.371094 43.316406 85.382812 48.4375 91.617188 48.910156 C 98.738281 49.453125 102.628906 44.957031 102.628906 44.957031 C 102.628906 44.957031 102.570312 47.878906 105.054688 48.910156 C 107.539062 49.941406 109.210938 44.152344 109.210938 44.152344 L 113.367188 32.65625 C 113.746094 32.65625 113.960938 40.132812 118.0625 41.324219 C 122.164062 42.515625 127.507812 38.53125 127.507812 38.53125 C 127.507812 38.53125 128.800781 37.816406 128.585938 35.648438 C 128.367188 33.480469 126.425781 34.289062 126.425781 34.289062 Z M 18.328125 28.863281 C 19.78125 30.273438 19.242188 33.304688 16.488281 35.199219 C 13.738281 37.101562 12.496094 36.71875 12.496094 36.71875 C 12.660156 30.273438 16.871094 27.453125 18.328125 28.863281 Z M 72.027344 6.597656 C 72.941406 11.472656 63.984375 25.992188 63.984375 25.992188 C 64.09375 22.738281 67.277344 11.742188 67.277344 11.742188 C 67.277344 11.742188 71.105469 1.71875 72.027344 6.597656 Z M 63.171875 43.601562 C 63.171875 43.601562 62.472656 41.214844 64.46875 34.550781 C 66.46875 27.886719 71.160156 30.488281 71.160156 30.488281 C 71.160156 30.488281 74.402344 32.980469 71.863281 39.644531 C 69.328125 46.308594 63.171875 43.601562 63.171875 43.601562 Z M 90.484375 30.542969 C 92.695312 26.480469 94.421875 28.699219 94.421875 28.699219 C 94.421875 28.699219 96.3125 30.761719 94.152344 33.847656 C 91.992188 36.9375 88.863281 36.71875 88.863281 36.71875 C 88.863281 36.71875 88.269531 34.605469 90.484375 30.542969 Z M 90.484375 30.542969 "/>
		<path d="M 112.511719 46.988281 L 112.511719 46.210938 L 113 46.210938 C 113.070312 46.210938 113.136719 46.21875 113.210938 46.226562 C 113.28125 46.238281 113.347656 46.253906 113.40625 46.28125 C 113.46875 46.304688 113.515625 46.339844 113.550781 46.386719 C 113.589844 46.433594 113.605469 46.5 113.605469 46.578125 C 113.605469 46.757812 113.554688 46.875 113.445312 46.921875 C 113.339844 46.96875 113.199219 46.988281 113.03125 46.988281 Z M 111.925781 45.753906 L 111.925781 48.714844 L 112.511719 48.714844 L 112.511719 47.449219 L 112.875 47.449219 L 113.59375 48.714844 L 114.207031 48.714844 L 113.417969 47.421875 C 113.523438 47.410156 113.625 47.386719 113.722656 47.355469 C 113.816406 47.324219 113.898438 47.277344 113.964844 47.214844 C 114.039062 47.15625 114.089844 47.074219 114.128906 46.976562 C 114.171875 46.878906 114.191406 46.765625 114.191406 46.628906 C 114.191406 46.308594 114.089844 46.082031 113.894531 45.953125 C 113.691406 45.820312 113.40625 45.753906 113.035156 45.753906 Z M 110.988281 47.238281 C 110.988281 46.933594 111.039062 46.65625 111.144531 46.40625 C 111.246094 46.152344 111.386719 45.9375 111.566406 45.753906 C 111.742188 45.570312 111.953125 45.425781 112.195312 45.320312 C 112.4375 45.21875 112.695312 45.167969 112.972656 45.167969 C 113.246094 45.167969 113.503906 45.21875 113.742188 45.320312 C 113.988281 45.425781 114.195312 45.570312 114.375 45.753906 C 114.554688 45.9375 114.695312 46.152344 114.800781 46.40625 C 114.90625 46.65625 114.960938 46.933594 114.960938 47.238281 C 114.960938 47.539062 114.90625 47.816406 114.800781 48.074219 C 114.695312 48.324219 114.554688 48.546875 114.375 48.730469 C 114.195312 48.917969 113.988281 49.0625 113.742188 49.167969 C 113.503906 49.269531 113.246094 49.320312 112.972656 49.320312 C 112.695312 49.320312 112.4375 49.269531 112.195312 49.167969 C 111.953125 49.0625 111.742188 48.917969 111.566406 48.730469 C 111.386719 48.546875 111.246094 48.324219 111.144531 48.074219 C 111.039062 47.816406 110.988281 47.539062 110.988281 47.238281 Z M 110.269531 47.238281 C 110.269531 47.644531 110.34375 48.007812 110.492188 48.332031 C 110.640625 48.660156 110.839844 48.9375 111.085938 49.167969 C 111.335938 49.398438 111.625 49.574219 111.949219 49.695312 C 112.277344 49.816406 112.617188 49.878906 112.972656 49.878906 C 113.332031 49.878906 113.671875 49.816406 114 49.695312 C 114.324219 49.574219 114.613281 49.398438 114.863281 49.167969 C 115.109375 48.9375 115.308594 48.660156 115.457031 48.332031 C 115.605469 48.007812 115.675781 47.644531 115.675781 47.238281 C 115.675781 46.835938 115.605469 46.472656 115.457031 46.148438 C 115.308594 45.824219 115.109375 45.546875 114.863281 45.316406 C 114.613281 45.089844 114.324219 44.910156 114 44.789062 C 113.671875 44.664062 113.332031 44.601562 112.972656 44.601562 C 112.617188 44.601562 112.277344 44.664062 111.949219 44.789062 C 111.625 44.910156 111.335938 45.089844 111.085938 45.316406 C 110.839844 45.546875 110.640625 45.824219 110.492188 46.148438 C 110.34375 46.472656 110.269531 46.835938 110.269531 47.238281 Z M 110.269531 47.238281 "/>
	</g>
</svg>
