<?xml version="1.0" encoding="UTF-8"?>
<svg xmlns="http://www.w3.org/2000/svg" xmlns:xlink="http://www.w3.org/1999/xlink" viewBox="0 0 160 97" version="1.1">
	<g>
		<path fill="#8e8e8e" d="M 37.753906 25.257812 L 67.929688 25.257812 L 67.929688 27.664062 L 40.519531 27.664062 L 40.519531 45.773438 L 66.296875 45.773438 L 66.296875 48.179688 L 40.519531 48.179688 L 40.519531 68.0625 L 68.246094 68.0625 L 68.246094 70.472656 L 37.753906 70.472656 Z M 70.636719 25.257812 L 73.839844 25.257812 L 88.050781 45.140625 L 102.570312 25.257812 L 122.328125 0 L 89.871094 47.230469 L 106.597656 70.472656 L 103.265625 70.472656 L 88.050781 49.320312 L 72.769531 70.472656 L 69.503906 70.472656 L 86.351562 47.230469 Z M 107.789062 27.664062 L 107.789062 25.257812 L 142.179688 25.257812 L 142.179688 27.664062 L 126.335938 27.664062 L 126.335938 70.472656 L 123.570312 70.472656 L 123.570312 27.664062 Z M 0 25.257812 L 3.457031 25.257812 L 51.140625 96.839844 L 31.4375 70.472656 L 2.894531 28.675781 L 2.765625 70.472656 L 0 70.472656 Z M 141.902344 67.339844 C 141.335938 67.339844 140.914062 66.898438 140.914062 66.332031 C 140.914062 65.761719 141.335938 65.324219 141.902344 65.324219 C 142.472656 65.324219 142.890625 65.761719 142.890625 66.332031 C 142.890625 66.898438 142.472656 67.339844 141.902344 67.339844 Z M 144.617188 64.6875 L 146.097656 64.6875 C 146.121094 65.492188 146.703125 66.03125 147.566406 66.03125 C 148.527344 66.03125 149.070312 65.453125 149.070312 64.363281 L 149.070312 57.472656 L 150.582031 57.472656 L 150.582031 64.371094 C 150.582031 66.332031 149.449219 67.457031 147.582031 67.457031 C 145.824219 67.457031 144.617188 66.363281 144.617188 64.6875 Z M 152.550781 64.597656 L 154.046875 64.597656 C 154.171875 65.527344 155.074219 66.113281 156.375 66.113281 C 157.585938 66.113281 158.472656 65.484375 158.472656 64.621094 C 158.472656 63.878906 157.90625 63.429688 156.625 63.128906 L 155.371094 62.824219 C 153.617188 62.410156 152.816406 61.558594 152.816406 60.128906 C 152.816406 58.390625 154.226562 57.234375 156.347656 57.234375 C 158.316406 57.234375 159.757812 58.390625 159.847656 60.03125 L 158.378906 60.03125 C 158.238281 59.132812 157.457031 58.570312 156.324219 58.570312 C 155.136719 58.570312 154.339844 59.144531 154.339844 60.023438 C 154.339844 60.71875 154.851562 61.121094 156.117188 61.417969 L 157.1875 61.679688 C 159.179688 62.144531 160 62.960938 160 64.421875 C 160 66.289062 158.558594 67.457031 156.257812 67.457031 C 154.105469 67.457031 152.660156 66.34375 152.550781 64.597656 Z M 152.550781 64.597656 "/>
	</g>
</svg>
