<svg xmlns="http://www.w3.org/2000/svg" xmlns:xlink="http://www.w3.org/1999/xlink" viewBox="0 0 163 44">
	<g>
		<path fill="#4b4b4b" d="M 54.199219 31.582031 C 52.671875 31.617188 51.167969 31.195312 49.886719 30.363281 C 48.691406 29.570312 47.800781 28.390625 47.371094 27.023438 L 49.996094 26.058594 C 50.359375 26.898438 50.953125 27.617188 51.710938 28.132812 C 52.476562 28.648438 53.382812 28.917969 54.308594 28.898438 C 55.195312 28.945312 56.070312 28.679688 56.785156 28.148438 C 57.414062 27.621094 57.757812 26.824219 57.707031 26.003906 C 57.710938 25.625 57.625 25.25 57.453125 24.917969 C 57.304688 24.613281 57.113281 24.339844 56.878906 24.097656 C 56.585938 23.828125 56.25 23.609375 55.886719 23.441406 C 55.441406 23.21875 55.070312 23.046875 54.777344 22.933594 C 54.480469 22.816406 54.046875 22.660156 53.476562 22.460938 C 52.761719 22.210938 52.226562 22.015625 51.871094 21.871094 C 51.386719 21.664062 50.914062 21.429688 50.464844 21.164062 C 49.976562 20.902344 49.535156 20.566406 49.152344 20.167969 C 48.820312 19.78125 48.554688 19.339844 48.363281 18.867188 C 47.601562 17.019531 48.109375 14.890625 49.621094 13.585938 C 50.691406 12.636719 52.144531 12.164062 53.984375 12.164062 C 55.519531 12.164062 56.785156 12.503906 57.777344 13.179688 C 58.738281 13.824219 59.441406 14.78125 59.769531 15.890625 L 57.199219 16.75 C 56.941406 16.167969 56.503906 15.683594 55.953125 15.367188 C 55.289062 14.996094 54.535156 14.816406 53.773438 14.84375 C 53.023438 14.800781 52.285156 15.007812 51.667969 15.433594 C 51.15625 15.828125 50.875 16.453125 50.90625 17.097656 C 50.910156 17.589844 51.125 18.058594 51.496094 18.386719 C 51.851562 18.734375 52.269531 19.019531 52.726562 19.214844 C 53.15625 19.394531 53.804688 19.636719 54.683594 19.941406 C 55.21875 20.136719 55.617188 20.285156 55.875 20.382812 C 56.132812 20.480469 56.511719 20.648438 57.011719 20.878906 C 57.410156 21.058594 57.796875 21.265625 58.164062 21.507812 C 58.492188 21.746094 58.804688 22.003906 59.101562 22.273438 C 59.421875 22.554688 59.699219 22.886719 59.917969 23.253906 C 60.128906 23.636719 60.289062 24.039062 60.402344 24.460938 C 60.535156 24.953125 60.605469 25.464844 60.601562 25.976562 C 60.601562 27.726562 60.003906 29.101562 58.804688 30.09375 C 57.609375 31.085938 56.074219 31.582031 54.199219 31.582031 Z M 71.367188 31.257812 L 64.9375 12.484375 L 67.941406 12.484375 L 72.199219 25.574219 C 72.433594 26.277344 72.628906 26.996094 72.789062 27.71875 C 72.945312 26.996094 73.140625 26.277344 73.375 25.574219 L 77.582031 12.484375 L 80.554688 12.484375 L 74.152344 31.257812 Z M 86.234375 31.257812 L 86.234375 12.484375 L 97.855469 12.484375 L 97.855469 15.113281 L 89.019531 15.113281 L 89.019531 20.265625 L 94.722656 20.265625 L 94.722656 22.890625 L 89.019531 22.890625 L 89.019531 28.628906 L 98.445312 28.628906 L 98.445312 31.257812 Z M 105.542969 31.257812 L 105.542969 12.484375 L 108.332031 12.484375 L 108.332031 28.578125 L 117.492188 28.578125 L 117.492188 31.257812 Z M 127.988281 15.164062 L 127.988281 31.257812 L 125.203125 31.257812 L 125.203125 15.164062 L 119.898438 15.164062 L 119.898438 12.484375 L 133.289062 12.484375 L 133.289062 15.164062 Z M 139.050781 31.257812 L 139.050781 12.484375 L 150.671875 12.484375 L 150.671875 15.113281 L 141.835938 15.113281 L 141.835938 20.265625 L 147.542969 20.265625 L 147.542969 22.890625 L 141.835938 22.890625 L 141.835938 28.628906 L 151.265625 28.628906 L 151.265625 31.257812 Z M 139.050781 31.257812 "/>
		<path fill="#717171" d="M 34.664062 8.914062 C 31.394531 4.226562 24.9375 2.839844 20.269531 5.816406 L 12.074219 11.050781 C 9.832031 12.460938 8.289062 14.75 7.824219 17.359375 C 7.433594 19.53125 7.777344 21.773438 8.800781 23.726562 C 8.097656 24.792969 7.621094 25.988281 7.394531 27.246094 C 6.921875 29.90625 7.539062 32.640625 9.105469 34.835938 C 12.375 39.523438 18.832031 40.910156 23.5 37.933594 L 31.695312 32.699219 C 33.9375 31.289062 35.480469 29 35.945312 26.390625 C 36.335938 24.21875 35.992188 21.976562 34.96875 20.023438 C 35.671875 18.957031 36.148438 17.761719 36.375 16.503906 C 36.847656 13.84375 36.230469 11.109375 34.664062 8.914062 "/>
		<path fill="#fff" d="M 19.46875 35.277344 C 16.828125 35.964844 14.039062 34.929688 12.480469 32.683594 C 11.539062 31.363281 11.167969 29.71875 11.449219 28.117188 C 11.5 27.859375 11.566406 27.601562 11.648438 27.351562 L 11.800781 26.878906 L 12.222656 27.191406 C 13.191406 27.902344 14.273438 28.445312 15.425781 28.792969 L 15.734375 28.886719 L 15.707031 29.191406 C 15.667969 29.625 15.785156 30.054688 16.035156 30.414062 C 16.503906 31.089844 17.34375 31.402344 18.140625 31.195312 C 18.316406 31.144531 18.488281 31.070312 18.640625 30.972656 L 26.839844 25.738281 C 27.246094 25.484375 27.527344 25.070312 27.613281 24.597656 C 27.699219 24.117188 27.585938 23.621094 27.300781 23.222656 C 26.832031 22.542969 25.992188 22.230469 25.195312 22.4375 C 25.019531 22.488281 24.847656 22.5625 24.691406 22.660156 L 21.566406 24.65625 C 21.050781 24.984375 20.488281 25.230469 19.898438 25.390625 C 17.257812 26.078125 14.46875 25.042969 12.910156 22.796875 C 11.96875 21.476562 11.597656 19.828125 11.882812 18.230469 C 12.164062 16.664062 13.089844 15.285156 14.4375 14.4375 L 22.632812 9.207031 C 23.148438 8.875 23.710938 8.628906 24.300781 8.472656 C 26.945312 7.785156 29.734375 8.820312 31.289062 11.066406 C 32.230469 12.386719 32.601562 14.03125 32.320312 15.632812 C 32.269531 15.890625 32.203125 16.148438 32.125 16.398438 L 31.96875 16.871094 L 31.546875 16.558594 C 30.578125 15.847656 29.496094 15.304688 28.34375 14.957031 L 28.039062 14.863281 L 28.0625 14.558594 C 28.101562 14.125 27.984375 13.695312 27.734375 13.335938 C 27.265625 12.660156 26.425781 12.347656 25.628906 12.554688 C 25.453125 12.601562 25.28125 12.679688 25.128906 12.777344 L 16.929688 18.011719 C 16.523438 18.265625 16.242188 18.679688 16.160156 19.152344 C 16.070312 19.632812 16.183594 20.128906 16.46875 20.527344 C 16.9375 21.207031 17.777344 21.519531 18.574219 21.3125 C 18.753906 21.261719 18.921875 21.1875 19.078125 21.089844 L 22.203125 19.09375 C 22.71875 18.765625 23.28125 18.519531 23.871094 18.359375 C 26.511719 17.671875 29.300781 18.707031 30.859375 20.953125 C 31.800781 22.273438 32.171875 23.921875 31.890625 25.519531 C 31.605469 27.085938 30.679688 28.464844 29.332031 29.3125 L 21.136719 34.542969 C 20.621094 34.875 20.058594 35.121094 19.46875 35.277344 "/>
	</g>
</svg>
